<mxfile host="Electron" modified="2023-11-20T14:04:17.969Z" agent="Mozilla/5.0 (Windows NT 10.0; Win64; x64) AppleWebKit/537.36 (KHTML, like Gecko) draw.io/22.1.2 Chrome/114.0.5735.289 Electron/25.9.4 Safari/537.36" etag="bNkP95mJKR8QtSa0MDo8" version="22.1.2" type="device">
  <diagram id="C5RBs43oDa-KdzZeNtuy" name="Page-1">
    <mxGraphModel dx="864" dy="526" grid="1" gridSize="10" guides="1" tooltips="1" connect="1" arrows="1" fold="1" page="1" pageScale="1" pageWidth="827" pageHeight="1169" math="0" shadow="0">
      <root>
        <mxCell id="WIyWlLk6GJQsqaUBKTNV-0" />
        <mxCell id="WIyWlLk6GJQsqaUBKTNV-1" parent="WIyWlLk6GJQsqaUBKTNV-0" />
        <mxCell id="yIsvQ1KM_3GRmnxjUnNN-3" style="edgeStyle=orthogonalEdgeStyle;rounded=0;orthogonalLoop=1;jettySize=auto;html=1;entryX=0.5;entryY=0;entryDx=0;entryDy=0;" edge="1" parent="WIyWlLk6GJQsqaUBKTNV-1" source="WIyWlLk6GJQsqaUBKTNV-3" target="yIsvQ1KM_3GRmnxjUnNN-0">
          <mxGeometry relative="1" as="geometry" />
        </mxCell>
        <mxCell id="WIyWlLk6GJQsqaUBKTNV-3" value="Mulai" style="rounded=1;whiteSpace=wrap;html=1;fontSize=12;glass=0;strokeWidth=1;shadow=0;arcSize=50;" parent="WIyWlLk6GJQsqaUBKTNV-1" vertex="1">
          <mxGeometry x="160" y="80" width="120" height="40" as="geometry" />
        </mxCell>
        <mxCell id="yIsvQ1KM_3GRmnxjUnNN-4" style="edgeStyle=orthogonalEdgeStyle;rounded=0;orthogonalLoop=1;jettySize=auto;html=1;" edge="1" parent="WIyWlLk6GJQsqaUBKTNV-1" source="yIsvQ1KM_3GRmnxjUnNN-0" target="yIsvQ1KM_3GRmnxjUnNN-1">
          <mxGeometry relative="1" as="geometry" />
        </mxCell>
        <mxCell id="yIsvQ1KM_3GRmnxjUnNN-0" value="Home" style="rounded=0;whiteSpace=wrap;html=1;" vertex="1" parent="WIyWlLk6GJQsqaUBKTNV-1">
          <mxGeometry x="160" y="160" width="120" height="40" as="geometry" />
        </mxCell>
        <mxCell id="yIsvQ1KM_3GRmnxjUnNN-5" style="edgeStyle=orthogonalEdgeStyle;rounded=0;orthogonalLoop=1;jettySize=auto;html=1;entryX=0.5;entryY=0;entryDx=0;entryDy=0;" edge="1" parent="WIyWlLk6GJQsqaUBKTNV-1" source="yIsvQ1KM_3GRmnxjUnNN-1" target="yIsvQ1KM_3GRmnxjUnNN-2">
          <mxGeometry relative="1" as="geometry" />
        </mxCell>
        <mxCell id="yIsvQ1KM_3GRmnxjUnNN-1" value="Top Up Saldo" style="rounded=0;whiteSpace=wrap;html=1;" vertex="1" parent="WIyWlLk6GJQsqaUBKTNV-1">
          <mxGeometry x="160" y="240" width="120" height="40" as="geometry" />
        </mxCell>
        <mxCell id="yIsvQ1KM_3GRmnxjUnNN-8" style="edgeStyle=orthogonalEdgeStyle;rounded=0;orthogonalLoop=1;jettySize=auto;html=1;" edge="1" parent="WIyWlLk6GJQsqaUBKTNV-1" source="yIsvQ1KM_3GRmnxjUnNN-2" target="yIsvQ1KM_3GRmnxjUnNN-6">
          <mxGeometry relative="1" as="geometry" />
        </mxCell>
        <mxCell id="yIsvQ1KM_3GRmnxjUnNN-2" value="Proses Top Up" style="shape=parallelogram;perimeter=parallelogramPerimeter;whiteSpace=wrap;html=1;fixedSize=1;" vertex="1" parent="WIyWlLk6GJQsqaUBKTNV-1">
          <mxGeometry x="160" y="320" width="120" height="40" as="geometry" />
        </mxCell>
        <mxCell id="yIsvQ1KM_3GRmnxjUnNN-9" style="edgeStyle=orthogonalEdgeStyle;rounded=0;orthogonalLoop=1;jettySize=auto;html=1;entryX=0.5;entryY=0;entryDx=0;entryDy=0;" edge="1" parent="WIyWlLk6GJQsqaUBKTNV-1" source="yIsvQ1KM_3GRmnxjUnNN-6" target="yIsvQ1KM_3GRmnxjUnNN-7">
          <mxGeometry relative="1" as="geometry" />
        </mxCell>
        <mxCell id="yIsvQ1KM_3GRmnxjUnNN-6" value="Payment Gate Way" style="rounded=0;whiteSpace=wrap;html=1;" vertex="1" parent="WIyWlLk6GJQsqaUBKTNV-1">
          <mxGeometry x="160" y="400" width="120" height="40" as="geometry" />
        </mxCell>
        <mxCell id="yIsvQ1KM_3GRmnxjUnNN-11" style="edgeStyle=orthogonalEdgeStyle;rounded=0;orthogonalLoop=1;jettySize=auto;html=1;entryX=0.5;entryY=0;entryDx=0;entryDy=0;" edge="1" parent="WIyWlLk6GJQsqaUBKTNV-1" source="yIsvQ1KM_3GRmnxjUnNN-7" target="yIsvQ1KM_3GRmnxjUnNN-10">
          <mxGeometry relative="1" as="geometry" />
        </mxCell>
        <mxCell id="yIsvQ1KM_3GRmnxjUnNN-7" value="Cek Data" style="rounded=0;whiteSpace=wrap;html=1;" vertex="1" parent="WIyWlLk6GJQsqaUBKTNV-1">
          <mxGeometry x="160" y="480" width="120" height="40" as="geometry" />
        </mxCell>
        <mxCell id="yIsvQ1KM_3GRmnxjUnNN-13" style="edgeStyle=orthogonalEdgeStyle;rounded=0;orthogonalLoop=1;jettySize=auto;html=1;entryX=0;entryY=0.5;entryDx=0;entryDy=0;fillColor=#e51400;strokeColor=#B20000;" edge="1" parent="WIyWlLk6GJQsqaUBKTNV-1" source="yIsvQ1KM_3GRmnxjUnNN-10" target="yIsvQ1KM_3GRmnxjUnNN-1">
          <mxGeometry relative="1" as="geometry">
            <mxPoint x="100" y="320" as="targetPoint" />
            <Array as="points">
              <mxPoint x="140" y="600" />
              <mxPoint x="140" y="260" />
            </Array>
          </mxGeometry>
        </mxCell>
        <mxCell id="yIsvQ1KM_3GRmnxjUnNN-16" value="No" style="edgeLabel;html=1;align=center;verticalAlign=middle;resizable=0;points=[];" vertex="1" connectable="0" parent="yIsvQ1KM_3GRmnxjUnNN-13">
          <mxGeometry x="-0.89" y="2" relative="1" as="geometry">
            <mxPoint as="offset" />
          </mxGeometry>
        </mxCell>
        <mxCell id="yIsvQ1KM_3GRmnxjUnNN-19" style="edgeStyle=orthogonalEdgeStyle;rounded=0;orthogonalLoop=1;jettySize=auto;html=1;entryX=0;entryY=0.5;entryDx=0;entryDy=0;fillColor=#008a00;strokeColor=#005700;" edge="1" parent="WIyWlLk6GJQsqaUBKTNV-1" source="yIsvQ1KM_3GRmnxjUnNN-10" target="yIsvQ1KM_3GRmnxjUnNN-17">
          <mxGeometry relative="1" as="geometry" />
        </mxCell>
        <mxCell id="yIsvQ1KM_3GRmnxjUnNN-20" value="Yes" style="edgeLabel;html=1;align=center;verticalAlign=middle;resizable=0;points=[];" vertex="1" connectable="0" parent="yIsvQ1KM_3GRmnxjUnNN-19">
          <mxGeometry x="-0.0857" relative="1" as="geometry">
            <mxPoint as="offset" />
          </mxGeometry>
        </mxCell>
        <mxCell id="yIsvQ1KM_3GRmnxjUnNN-10" value="Data Sesuai?" style="rhombus;whiteSpace=wrap;html=1;" vertex="1" parent="WIyWlLk6GJQsqaUBKTNV-1">
          <mxGeometry x="180" y="560" width="80" height="80" as="geometry" />
        </mxCell>
        <mxCell id="yIsvQ1KM_3GRmnxjUnNN-22" style="edgeStyle=orthogonalEdgeStyle;rounded=0;orthogonalLoop=1;jettySize=auto;html=1;" edge="1" parent="WIyWlLk6GJQsqaUBKTNV-1" source="yIsvQ1KM_3GRmnxjUnNN-17" target="yIsvQ1KM_3GRmnxjUnNN-21">
          <mxGeometry relative="1" as="geometry" />
        </mxCell>
        <mxCell id="yIsvQ1KM_3GRmnxjUnNN-17" value="Verifikasi Pin" style="shape=parallelogram;perimeter=parallelogramPerimeter;whiteSpace=wrap;html=1;fixedSize=1;" vertex="1" parent="WIyWlLk6GJQsqaUBKTNV-1">
          <mxGeometry x="320" y="580" width="120" height="40" as="geometry" />
        </mxCell>
        <mxCell id="yIsvQ1KM_3GRmnxjUnNN-24" style="edgeStyle=orthogonalEdgeStyle;rounded=0;orthogonalLoop=1;jettySize=auto;html=1;entryX=0.5;entryY=0;entryDx=0;entryDy=0;" edge="1" parent="WIyWlLk6GJQsqaUBKTNV-1" source="yIsvQ1KM_3GRmnxjUnNN-21" target="yIsvQ1KM_3GRmnxjUnNN-23">
          <mxGeometry relative="1" as="geometry" />
        </mxCell>
        <mxCell id="yIsvQ1KM_3GRmnxjUnNN-21" value="Top Up Berhasil" style="rounded=0;whiteSpace=wrap;html=1;" vertex="1" parent="WIyWlLk6GJQsqaUBKTNV-1">
          <mxGeometry x="320" y="660" width="120" height="40" as="geometry" />
        </mxCell>
        <mxCell id="yIsvQ1KM_3GRmnxjUnNN-23" value="Selesai" style="rounded=1;whiteSpace=wrap;html=1;fontSize=12;glass=0;strokeWidth=1;shadow=0;arcSize=50;" vertex="1" parent="WIyWlLk6GJQsqaUBKTNV-1">
          <mxGeometry x="320" y="740" width="120" height="40" as="geometry" />
        </mxCell>
        <mxCell id="yIsvQ1KM_3GRmnxjUnNN-25" value="&lt;font style=&quot;font-size: 18px;&quot;&gt;Flowchart Top Up Dompet Lim&lt;/font&gt;" style="text;html=1;strokeColor=none;fillColor=none;align=center;verticalAlign=middle;whiteSpace=wrap;rounded=0;" vertex="1" parent="WIyWlLk6GJQsqaUBKTNV-1">
          <mxGeometry x="180" y="40" width="260" height="30" as="geometry" />
        </mxCell>
      </root>
    </mxGraphModel>
  </diagram>
</mxfile>
